<?xml version="1.0" standalone="no"?>
<!DOCTYPE svg PUBLIC "-//W3C//DTD SVG 20010904//EN"
 "http://www.w3.org/TR/2001/REC-SVG-20010904/DTD/svg10.dtd">
<svg version="1.0" xmlns="http://www.w3.org/2000/svg"
 width="200.000000pt" height="200.000000pt" viewBox="0 0 200.000000 200.000000"
 preserveAspectRatio="xMidYMid meet">

<g transform="translate(0.000000,200.000000) scale(0.100000,-0.100000)"
fill="#000000" stroke="none">
<path d="M845 1835 c-503 -95 -810 -610 -653 -1095 87 -270 295 -471 575 -557
78 -23 104 -26 233 -26 129 0 155 3 233 26 291 89 495 293 584 584 23 78 26
104 26 233 0 129 -3 155 -26 233 -15 49 -39 112 -54 140 -174 345 -547 532
-918 462z m291 -88 c3 -3 -4 -48 -16 -99 l-23 -93 -98 0 -98 0 -20 82 c-27
105 -26 111 7 116 37 7 240 2 248 -6z m-353 -130 l25 -88 -57 -28 c-31 -16
-67 -38 -81 -49 l-25 -21 -72 71 -72 71 42 34 c50 40 199 115 208 105 4 -4 18
-47 32 -95z m612 33 c17 -11 48 -33 68 -48 l36 -29 -72 -71 -72 -71 -25 21
c-14 11 -50 33 -81 49 l-57 28 24 83 c13 46 26 89 29 96 5 13 86 -18 150 -58z
m-850 -324 c-12 -17 -34 -54 -48 -82 l-26 -52 -88 25 c-48 14 -91 28 -95 32
-10 9 54 139 98 198 l39 52 72 -71 72 -71 -24 -31z m1135 9 c22 -43 36 -82 32
-86 -4 -4 -47 -18 -95 -32 l-88 -25 -26 52 c-14 28 -36 65 -49 83 l-24 31 72
70 72 70 33 -42 c18 -22 51 -77 73 -121z m-598 74 c215 -46 368 -265 330 -470
-34 -184 -167 -317 -351 -351 -265 -49 -522 210 -472 478 43 237 265 391 493
343z m-719 -290 l82 -20 0 -98 0 -98 -93 -23 c-51 -12 -96 -20 -98 -17 -10 10
-17 164 -10 221 9 65 5 64 119 35z m1393 -35 c7 -57 0 -211 -10 -221 -2 -3
-47 5 -98 17 l-93 23 0 98 0 98 75 20 c118 30 117 30 126 -35z m-1257 -332
c16 -31 38 -68 49 -82 l21 -25 -71 -72 -71 -72 -34 42 c-32 40 -99 165 -105
196 -2 10 24 23 87 42 50 15 91 27 92 28 2 1 16 -25 32 -57z m1213 -1 c10 -9
-61 -149 -103 -205 l-34 -45 -72 71 -72 71 24 31 c12 17 34 54 48 82 l26 52
88 -25 c48 -14 91 -28 95 -32z m-1039 -205 c18 -13 55 -35 83 -49 l52 -26 -25
-88 c-14 -48 -28 -91 -32 -95 -9 -10 -149 61 -205 103 l-44 34 66 71 c37 39
68 72 70 73 2 0 18 -10 35 -23z m784 -153 c-51 -40 -199 -115 -208 -105 -4 4
-18 47 -32 95 l-25 88 57 28 c31 16 67 38 81 49 l25 21 72 -71 72 -71 -42 -34z
m-337 -41 c12 -51 19 -96 15 -100 -9 -10 -261 -9 -271 1 -4 4 2 49 14 100 l23
92 98 0 98 0 23 -93z"/>
<path d="M913 1325 c-207 -56 -310 -289 -212 -480 79 -154 277 -224 434 -152
291 134 256 552 -52 632 -69 18 -102 18 -170 0z m177 -61 c76 -23 153 -100
176 -179 63 -219 -132 -414 -351 -351 -79 23 -156 100 -179 176 -34 113 -11
206 68 286 80 79 173 102 286 68z"/>
</g>
</svg>
