<?xml version="1.0" standalone="no"?>
<!DOCTYPE svg PUBLIC "-//W3C//DTD SVG 20010904//EN"
 "http://www.w3.org/TR/2001/REC-SVG-20010904/DTD/svg10.dtd">
<svg version="1.0" xmlns="http://www.w3.org/2000/svg"
 width="800.000000pt" height="800.000000pt" viewBox="0 0 800.000000 800.000000"
 preserveAspectRatio="xMidYMid meet">

<g transform="translate(0.000000,800.000000) scale(0.100000,-0.100000)"
fill="#000000" stroke="none">
<path d="M3795 7834 c-844 -54 -1608 -354 -2250 -883 -121 -100 -337 -312
-447 -440 -444 -512 -750 -1149 -873 -1815 -44 -242 -59 -411 -59 -696 0 -285
15 -454 59 -696 194 -1049 820 -1974 1725 -2549 399 -253 887 -444 1354 -529
247 -45 412 -59 696 -60 442 0 784 54 1188 185 1168 382 2079 1293 2461 2461
131 404 185 747 185 1188 0 363 -34 635 -118 961 -276 1065 -999 1963 -1976
2458 -428 217 -846 342 -1320 396 -133 15 -507 26 -625 19z m495 -444 c1236
-112 2309 -874 2811 -1995 399 -891 399 -1899 0 -2790 -301 -673 -818 -1231
-1477 -1593 -998 -549 -2250 -549 -3248 0 -675 371 -1203 950 -1499 1643 -187
437 -277 871 -277 1345 0 474 90 908 277 1345 244 572 649 1069 1173 1441 466
332 1056 548 1640 602 136 13 465 14 600 2z"/>
<path d="M3770 6829 c-384 -31 -790 -151 -1127 -335 -231 -126 -516 -344 -692
-530 -419 -441 -671 -964 -763 -1579 -30 -200 -30 -570 0 -770 95 -638 361
-1173 802 -1615 256 -256 527 -445 848 -589 566 -256 1218 -316 1827 -169 408
98 790 286 1125 555 121 97 341 320 436 443 324 418 504 840 585 1370 32 208
32 572 0 780 -68 446 -212 828 -443 1175 -148 222 -364 462 -565 627 -108 90
-323 235 -446 302 -475 259 -1041 378 -1587 335z m501 -1276 l265 -818 869 -5
870 -5 -695 -504 c-382 -277 -698 -507 -702 -510 -4 -3 112 -373 258 -821 145
-448 263 -818 262 -822 -2 -5 -316 219 -698 496 -382 278 -697 506 -700 506
-3 0 -318 -228 -700 -506 -382 -277 -696 -501 -698 -496 -1 4 117 374 262 822
146 448 262 818 258 821 -4 3 -320 233 -702 510 l-695 504 870 5 869 5 265
818 c146 449 268 817 271 817 3 0 125 -368 271 -817z"/>
</g>
</svg>
