<?xml version="1.0" standalone="no"?>
<!DOCTYPE svg PUBLIC "-//W3C//DTD SVG 20010904//EN"
 "http://www.w3.org/TR/2001/REC-SVG-20010904/DTD/svg10.dtd">
<svg version="1.0" xmlns="http://www.w3.org/2000/svg"
 width="256.000000pt" height="256.000000pt" viewBox="0 0 256.000000 256.000000"
 preserveAspectRatio="xMidYMid meet">

<g transform="translate(0.000000,256.000000) scale(0.100000,-0.100000)"
fill="#000000" stroke="none">
<path d="M812 2525 c-118 -144 -204 -406 -185 -565 6 -48 9 -54 57 -86 56 -37
81 -42 90 -18 15 39 242 -10 267 -58 11 -21 11 -21 -16 0 -15 12 -34 22 -41
22 -7 0 -95 -22 -196 -49 -101 -27 -198 -52 -217 -56 l-33 -7 4 158 c5 177 24
263 113 522 50 148 53 162 27 162 -23 0 -132 -221 -185 -376 -46 -132 -87
-316 -93 -418 l-5 -81 65 -48 c36 -26 73 -47 81 -47 9 0 71 20 138 44 198 72
280 83 343 48 20 -11 7 -14 -106 -27 l-54 -6 -141 -143 c-184 -188 -352 -301
-380 -256 -3 5 -15 10 -25 10 -27 0 -32 -38 -34 -243 -1 -165 0 -177 32 -297
60 -223 176 -505 208 -505 26 0 24 15 -29 197 -91 310 -104 440 -62 620 8 36
13 72 10 80 -3 8 37 44 102 93 58 44 167 137 240 207 128 120 179 155 218 146
18 -4 -93 -98 -116 -98 -9 0 -21 -6 -27 -12 -29 -35 -52 -546 -33 -723 24
-214 76 -401 171 -601 48 -103 64 -124 82 -106 6 6 -6 63 -36 168 -99 341
-111 486 -80 917 l18 261 46 56 c54 63 78 85 86 77 4 -3 -3 -19 -15 -35 -25
-36 -26 -57 -6 -182 16 -97 118 -425 136 -436 6 -3 19 2 30 12 18 16 20 16 38
0 11 -10 24 -15 30 -12 18 11 120 339 136 436 20 125 19 146 -6 182 -12 16
-19 32 -15 35 8 8 32 -14 86 -77 l46 -56 18 -261 c31 -431 18 -576 -80 -916
-25 -86 -42 -162 -39 -167 16 -26 36 -2 83 98 97 208 149 391 173 607 19 177
-4 688 -33 723 -6 6 -18 12 -27 12 -23 0 -134 94 -116 98 40 9 91 -26 218
-146 74 -70 182 -163 240 -207 65 -49 105 -85 102 -93 -3 -8 2 -44 10 -80 42
-180 29 -310 -62 -620 -53 -182 -55 -197 -29 -197 31 0 146 277 207 500 32
115 33 128 33 295 -1 206 -7 250 -34 250 -10 0 -22 -4 -25 -10 -28 -45 -196
68 -380 256 l-141 143 -54 6 c-113 13 -126 16 -106 27 63 35 145 24 343 -48
67 -24 129 -44 138 -44 8 0 45 21 81 47 l65 48 -5 81 c-6 102 -47 286 -93 418
-53 155 -162 376 -185 376 -26 0 -23 -14 27 -162 89 -259 108 -345 113 -522
l4 -158 -33 7 c-19 4 -116 29 -217 56 -101 27 -189 49 -196 49 -7 0 -26 -10
-41 -22 -27 -21 -27 -21 -16 0 25 48 252 97 267 58 9 -24 34 -19 90 18 48 32
51 38 57 85 15 126 -32 313 -113 455 -47 81 -96 146 -111 146 -27 0 -17 -41
35 -148 52 -108 57 -125 66 -217 10 -115 4 -185 -18 -202 -9 -7 -36 -13 -60
-13 -55 0 -143 -22 -220 -56 -49 -21 -62 -32 -80 -69 l-21 -43 -38 19 c-20 10
-45 19 -54 19 -23 0 -31 -26 -12 -41 13 -12 13 -15 -7 -31 -21 -17 -24 -17
-42 -2 -16 15 -16 19 -4 33 17 20 10 41 -13 41 -9 0 -34 -9 -54 -19 l-38 -19
-21 43 c-18 37 -31 48 -80 69 -77 34 -165 56 -220 56 -24 0 -51 6 -60 13 -22
17 -28 87 -18 202 9 92 14 109 66 217 52 107 62 148 35 148 -5 0 -23 -16 -39
-35z m-89 -563 c13 -14 37 -21 97 -26 50 -4 113 -18 165 -37 80 -29 85 -33
113 -83 46 -81 63 -89 182 -89 119 0 136 8 182 89 28 50 33 54 111 82 45 17
114 33 152 36 39 4 80 9 92 12 29 6 43 55 44 164 1 69 2 79 10 55 6 -16 13
-73 16 -126 l6 -96 -33 -23 c-29 -21 -35 -22 -70 -10 -53 18 -136 6 -224 -30
-68 -29 -74 -34 -110 -95 -42 -72 -42 -100 0 -92 l26 5 -28 -23 c-23 -18 -26
-26 -17 -36 15 -15 132 -38 194 -39 42 0 50 -4 82 -42 153 -185 414 -389 482
-376 23 5 24 2 31 -60 10 -93 -2 -309 -19 -362 l-15 -45 -1 106 c-1 59 -8 143
-16 188 -9 45 -13 85 -10 90 12 20 -13 46 -139 143 -72 56 -185 154 -251 218
-131 127 -134 129 -280 146 -50 6 -55 5 -55 -13 0 -22 153 -161 199 -180 l28
-12 13 -175 c18 -247 9 -538 -21 -683 -25 -124 -39 -148 -18 -31 17 93 17 382
0 588 -6 85 -14 181 -15 213 -2 38 -9 65 -22 80 -84 101 -183 183 -210 173
-22 -8 -17 -56 12 -115 24 -48 26 -60 20 -125 -7 -79 -39 -207 -83 -331 -28
-79 -28 -80 -63 -80 -35 0 -35 1 -63 80 -44 124 -76 252 -83 331 -6 65 -4 77
20 125 29 59 34 107 12 115 -27 10 -126 -72 -210 -173 -13 -15 -20 -42 -22
-80 -1 -32 -9 -128 -15 -213 -17 -206 -17 -495 0 -588 21 -117 7 -93 -18 31
-30 145 -39 436 -21 683 l13 175 28 12 c15 7 67 45 114 86 86 74 107 111 63
111 -42 0 -154 -23 -183 -38 -16 -8 -79 -63 -140 -122 -60 -59 -169 -153 -241
-208 -126 -97 -151 -123 -139 -143 3 -5 -1 -45 -10 -90 -8 -45 -15 -129 -16
-188 l-1 -106 -15 45 c-17 53 -29 269 -19 362 7 62 8 65 31 60 68 -13 329 191
482 376 32 38 40 42 82 42 62 1 179 24 194 39 9 10 6 18 -17 36 l-28 23 26 -5
c42 -8 42 20 0 92 -36 61 -42 66 -110 95 -88 36 -171 48 -224 30 -35 -11 -41
-11 -69 9 -29 21 -31 27 -31 83 0 34 6 91 12 127 l13 66 5 -107 c5 -82 10
-111 23 -126z m-227 -50 c-8 -114 1 -217 21 -237 17 -18 27 -16 263 47 102 27
194 46 205 43 11 -3 36 -19 55 -36 l35 -31 -45 22 c-63 32 -140 23 -310 -35
-74 -26 -145 -49 -157 -52 -20 -5 -53 15 -116 67 -12 11 36 310 51 310 2 0 1
-44 -2 -98z m1592 -7 c11 -55 23 -123 26 -150 l6 -51 -51 -38 c-59 -44 -45
-45 -229 19 -170 58 -247 67 -310 35 l-45 -22 35 31 c19 17 44 33 55 36 11 3
103 -16 205 -43 236 -63 246 -65 264 -47 20 21 29 120 21 238 -4 56 -5 100 -2
97 3 -3 15 -50 25 -105z"/>
</g>
</svg>
